<?xml version="1.0" encoding="utf-8"?>
<!-- Generator: Adobe Illustrator 22.0.0, SVG Export Plug-In . SVG Version: 6.00 Build 0)  -->
<svg version="1.1" id="Слой_1" xmlns="http://www.w3.org/2000/svg" xmlns:xlink="http://www.w3.org/1999/xlink" x="0px" y="0px"
	 viewBox="0 0 430.6 168" style="enable-background:new 0 0 430.6 168;" xml:space="preserve">
<style type="text/css">
	.st0{fill:#FFFFFF;}
</style>
<title>vvxlogo5</title>
<g id="Слой_2_1_">
	<g id="Слой_1-2">
		<path class="st0" d="M0.4,7l66.8,157.9c0.8,1.9,2.6,3.1,4.7,3.1h238.6c1.7,0,3.4-0.9,4.3-2.4l26.8-42.5l27.5,42.6
			c0.9,1.4,2.5,2.3,4.2,2.3h52.3c2.8,0,5.1-2.2,5.1-5c0-1.1-0.3-2.1-1-3l-54.1-76c-1.3-1.8-1.3-4.1,0-5.9L426,8
			c1.6-2.3,1.1-5.4-1.1-7c-0.9-0.6-1.9-1-3-1h-48.4c-1.7,0-3.3,0.9-4.2,2.3l-26.3,40l-27.1-40C315,0.8,313.4,0,311.7,0h-53.2
			c-1.9,0-3.6,1-4.4,2.6L228.4,50c-1.3,2.5-0.4,5.5,2,6.9c0.7,0.4,1.6,0.6,2.4,0.6h12.9c2.8-0.1,5,2.1,5.1,4.9
			c0,1.3-0.5,2.6-1.4,3.6L156.3,168l35-79.4c1.2-2.5,0.1-5.5-2.5-6.6c-0.7-0.3-1.4-0.5-2.2-0.5h-14.3c-2.8,0-5-2.3-5-5.1
			c0-0.7,0.1-1.3,0.4-1.9L196.2,7c1.1-2.6-0.1-5.5-2.7-6.6c-0.6-0.3-1.3-0.4-1.9-0.4h-48.7c-2,0-3.9,1.2-4.7,3.1L98.5,98.2l-38.8-95
			C58.9,1.3,57.1,0,55,0H5.1C2.3,0,0,2.3,0,5.1C0,5.7,0.1,6.4,0.4,7z"/>
	</g>
</g>
</svg>
