<svg xmlns="http://www.w3.org/2000/svg" viewBox="0 0 1094.03 215.31"><defs><style>.cls-1{fill:#fff;}</style></defs><title>Ресурс 3</title><g id="Слой_2" data-name="Слой 2"><g id="Слой_1-2" data-name="Слой 1"><path class="cls-1" d="M63.91,210.78,0,55.84H47.77L87.48,163.33l39.7-107.49H175L111,210.78"/><path class="cls-1" d="M629,52.61V96c-24.34-4.17-47.71,5.12-57,23.37v91.51H527v-155h39V79.08C577,62,599.77,49.71,629,52.61Z"/><path class="cls-1" d="M702,0V55.84h49v38H702v60.69c0,16.14,8.08,23.24,24.88,23.24A73.61,73.61,0,0,0,755,172.6v35.52a126,126,0,0,1-41.43,6.74c-29.87,0-55.57-13.81-55.57-52v-69H632v-38h26V10.65Z"/><path class="cls-1" d="M846.18,51.33c64.24,0,84.9,50.67,74.57,96.51H811.64c5.17,22.6,29.05,32,54.56,32a116.3,116.3,0,0,0,46.8-9.36v35.18c-14.53,6.13-33.57,9.69-56.81,9.69-49.07,0-89.74-28.09-89.74-82C766.45,74.89,811.32,51.33,846.18,51.33Zm1.21,34.27c-19,0-35.83,11.94-36.48,33.24H880C881.6,108.19,875.47,85.6,847.39,85.6Z"/><path class="cls-1" d="M1090.81,55.84l-55.87,76.86L1094,210.84h-50.69l-34.23-47.47-34.56,47.47H923.86L983,132.7,926.76,55.84h50.7l31.65,46.5,31-46.5Z"/><polygon class="cls-1" points="172.58 55.84 108.81 210.84 528 210.84 528 55.84 172.58 55.84"/></g></g></svg>