<svg xmlns="http://www.w3.org/2000/svg" viewBox="0 0 390.78 168"><defs><style>.cls-1{fill:#fff;}</style></defs><title>vxlogo2_1</title><g id="Слой_2" data-name="Слой 2"><g id="Слой_1-2" data-name="Слой 1"><path class="cls-1" d="M.38,6.54,67.44,165.13A4.69,4.69,0,0,0,71.77,168H270.44a4.69,4.69,0,0,0,4-2.2l23-36.45a4.7,4.7,0,0,1,7.93,0L329,165.85A4.69,4.69,0,0,0,333,168h53.1a4.71,4.71,0,0,0,3.84-7.44l-54.67-76.7a4.68,4.68,0,0,1,0-5.47l51-70.94A4.7,4.7,0,0,0,382.42,0H333.17a4.72,4.72,0,0,0-3.93,2.12L306.68,36.35a4.7,4.7,0,0,1-7.83,0L275.64,2.07A4.73,4.73,0,0,0,271.74,0H241.83a4.72,4.72,0,0,0-4.14,2.46l-26.08,48.1a4.71,4.71,0,0,0,4.11,6.95l14.34.09a4.71,4.71,0,0,1,3.45,7.88L139.81,168l35.25-79.88a4.71,4.71,0,0,0-4.3-6.61l-14.42,0A4.7,4.7,0,0,1,152,75L180.62,6.52A4.71,4.71,0,0,0,176.28,0H142.82a4.71,4.71,0,0,0-4.34,2.89L103.05,87.65a4.71,4.71,0,0,1-8.7,0L59.77,2.93A4.72,4.72,0,0,0,55.41,0H4.71A4.7,4.7,0,0,0,.38,6.54Z"/></g></g></svg>