<svg xmlns="http://www.w3.org/2000/svg" viewBox="0 0 429.95 168"><defs><style>.cls-1{fill:#fff;}</style></defs><title>vxlogo4</title><g id="Слой_2" data-name="Слой 2"><g id="Слой_1-2" data-name="Слой 1"><path class="cls-1" d="M.44,7.66l66.38,157A5.51,5.51,0,0,0,71.9,168h238a5.51,5.51,0,0,0,4.66-2.57l22.09-35a5.51,5.51,0,0,1,9.29-.06l22.73,35.12a5.49,5.49,0,0,0,4.62,2.52h51.11a5.51,5.51,0,0,0,4.49-8.71l-53.42-75a5.5,5.5,0,0,1,0-6.41L425.25,8.73A5.51,5.51,0,0,0,420.77,0H373.53a5.51,5.51,0,0,0-4.6,2.48L347.27,35.35a5.51,5.51,0,0,1-9.17,0l-22.3-33A5.51,5.51,0,0,0,311.24,0H254.55a5.54,5.54,0,0,0-4.85,2.88L224.6,49.19a5.5,5.5,0,0,0,4.84,8.14h11a5.52,5.52,0,0,1,4.08,9.23L152.06,168l34.73-78.72a5.51,5.51,0,0,0-5-7.74H168.8a5.51,5.51,0,0,1-5.07-7.66l28-66.22A5.52,5.52,0,0,0,186.65,0H143a5.5,5.5,0,0,0-5.08,3.39L103.39,85.85a5.51,5.51,0,0,1-10.19,0L59.56,3.43A5.49,5.49,0,0,0,54.46,0H5.52A5.51,5.51,0,0,0,.44,7.66Z"/></g></g></svg>